# xmcd CD database file
#
# Track frame offsets:
#	150
#	15188
#	33386
#	43402
#	63042
#	78189
#	90687
#	112771
#	128271
#	142277
#	156606
#	173557
#
# Disc length: 2551 seconds
#
# Revision: 0
# Processed by: cddbd v1.5.1PL0 Copyright (c) Steve Scherf et al.
# Submitted via: CDex 1.51
#
DISCID=8d09f50c
DTITLE=花岡詠二プレイズ・ベニー・グッドマン・トリオ - 何時か何処かで
DYEAR=2004
DGENRE=Jazz
TTITLE0=Where Or When
TTITLE1=What Can I Say After I Say I'm Sorry
TTITLE2=Have You Met Miss Jones?
TTITLE3=Poor Butterfly
TTITLE4=The Worlds Waiting For The Sunrize
TTITLE5=Silhouetted In The Moonlight
TTITLE6=Rose Room
TTITLE7=I Must Have That Man
TTITLE8=Oh! Lady Be Good
TTITLE9=To You Sweetheart, Aloha
TTITLE10=Idaho
TTITLE11=Memories Of You
EXTD=YEAR: 2004
EXTT0=
EXTT1=
EXTT2=
EXTT3=
EXTT4=
EXTT5=
EXTT6=
EXTT7=
EXTT8=
EXTT9=
EXTT10=
EXTT11=
PLAYORDER=
